<svg width="1024" height="1024" xmlns="http://www.w3.org/2000/svg" version="1.1" class="icon">

 <g>
  <title>background</title>
  <rect fill="none" id="canvas_background" height="814" width="1654" y="-1" x="-1"/>
 </g>
 <g>
  <title>Layer 1</title>
  <path id="svg_1" fill="#4CAF50" d="m382.4,514.4c0,69.6 57.6,127.2 127.2,127.2s127.2,-57.6 127.2,-127.2s-57.6,-127.2 -127.2,-127.2s-127.2,57.6 -127.2,127.2z"/>
  <path id="svg_2" fill="#F75B60" d="m509.6,320l400.8,0c-72,-148.8 -223.2,-249.6 -398.4,-249.6c-127.2,0 -242.4,52.8 -321.6,139.2l136.8,240c26.4,-74.4 98.4,-129.6 182.4,-129.6z"/>
  <path id="svg_3" fill="#00D19C" d="m548,704c-12,2.4 -26.4,4.8 -38.4,4.8c-69.6,0 -129.6,-36 -163.2,-88.8l-201.6,-352.8c-48,69.6 -74.4,153.6 -74.4,244.8c0,213.6 151.2,391.2 352.8,432l-9.6,-4.8l134.4,-235.2z"/>
  <path id="svg_4" fill="#FCA253" d="m934.4,387.2l-278.4,0c28.8,33.6 48,79.2 48,127.2c0,38.4 -9.6,72 -28.8,103.2l-194.4,336c9.6,0 21.6,2.4 31.2,2.4c244.8,0 441.6,-196.8 441.6,-441.6c0,-45.6 -7.2,-88.8 -19.2,-127.2z"/>
  <path id="svg_6" d="m447.164229,481.641926l0,0l0,-0.010523l0,0.010523zm0.005261,-0.010523l30.363319,30.373841l-30.36858,30.363319l11.16461,11.169871l41.53319,-41.538451l-41.53319,-41.538451l-11.159348,11.169871zm53.802685,71.149395l75.863575,0l0,-15.778824l-75.863575,0l0,15.778824zm22.808003,-32.883511l53.055572,0l0,-15.778824l-53.055572,0l0,15.778824zm-22.808003,-48.667596l0,15.789347l75.863575,0l0,-15.789347l-75.863575,0z" stroke-width="1.5" fill="#FFFFFF"/>
 </g>
</svg>