<svg width="1024" height="1024" xmlns="http://www.w3.org/2000/svg" class="icon" version="1.1">
 <g>
  <title>background</title>
  <rect x="-1" y="-1" width="1026" height="1026" id="canvas_background" fill="none"/>
 </g>

 <g>
  <title>Layer 1</title>
  <path d="m382.4,514.4c0,69.6 57.6,127.2 127.2,127.2s127.2,-57.6 127.2,-127.2s-57.6,-127.2 -127.2,-127.2s-127.2,57.6 -127.2,127.2z" fill="#BBBBBB" id="svg_1"/>
  <path d="m509.6,320l400.8,0c-72,-148.8 -223.2,-249.6 -398.4,-249.6c-127.2,0 -242.4,52.8 -321.6,139.2l136.8,240c26.4,-74.4 98.4,-129.6 182.4,-129.6z" fill="#F75B60" id="svg_2"/>
  <path d="m548,704c-12,2.4 -26.4,4.8 -38.4,4.8c-69.6,0 -129.6,-36 -163.2,-88.8l-201.6,-352.8c-48,69.6 -74.4,153.6 -74.4,244.8c0,213.6 151.2,391.2 352.8,432l-9.6,-4.8l134.4,-235.2z" fill="#00D19C" id="svg_3"/>
  <path d="m934.4,387.2l-278.4,0c28.8,33.6 48,79.2 48,127.2c0,38.4 -9.6,72 -28.8,103.2l-194.4,336c9.6,0 21.6,2.4 31.2,2.4c244.8,0 441.6,-196.8 441.6,-441.6c0,-45.6 -7.2,-88.8 -19.2,-127.2z" fill="#FCA253" id="svg_4"/>
  <rect stroke="null" id="svg_6" height="124.000001" width="419.999999" y="699" x="305.5" fill-opacity="null" stroke-opacity="null" stroke-width="null" fill="#000"/>
  <text transform="matrix(3.900010798725272,0,0,3.1259896355058565,-1466.480415901496,-1890.614468207539) " xml:space="preserve" text-anchor="start" font-family="Helvetica, Arial, sans-serif" font-size="24" id="svg_5" y="857.327437" x="464.708323" stroke-width="0" fill="#FFF">GROUP</text>
 </g>
</svg>
