<?xml version="1.0" standalone="no"?><!DOCTYPE svg PUBLIC "-//W3C//DTD SVG 1.1//EN" "http://www.w3.org/Graphics/SVG/1.1/DTD/svg11.dtd"><svg t="1705301313169" class="icon" viewBox="0 0 1024 1024" version="1.1" xmlns="http://www.w3.org/2000/svg" p-id="1751" xmlns:xlink="http://www.w3.org/1999/xlink" width="200" height="200"><path d="M512.120471 434.477176A172.092235 172.092235 0 0 0 683.971765 262.324706a172.032 172.032 0 1 0-171.881412 172.122353z m92.099764 27.648l-92.099764 122.729412-92.220236-122.729412c-107.339294 38.520471-184.139294 142.155294-184.139294 264.342589v167.303529h0.602353c5.12 31.201882 126.373647 56.229647 275.757177 56.229647 149.263059 0 270.637176-24.997647 275.757176-56.229647h0.602353v-167.303529c0-122.157176-77.040941-225.822118-184.259765-264.342589z m-75.414588 16.444236c0-0.090353 11.535059-11.866353 10.752-31.533177a279.642353 279.642353 0 0 0-52.585412 0s-1.385412 18.642824 10.179765 31.774118c0 0 21.142588 0.451765 31.623529-0.240941z m-16.233412 87.883294l30.057412-34.936471-14.275765-47.887059h-31.442823l-15.420235 47.887059 31.081411 34.936471z m304.579765 10.420706l22.497882-26.202353-10.721882-35.960471h-23.672471l-11.535058 35.990588 23.431529 26.172236z m12.107294-65.957647s8.583529-8.794353 8.011294-23.642353a190.795294 190.795294 0 0 0-20.028235-0.90353 182.814118 182.814118 0 0 0-19.425882 0.90353s-0.903529 13.944471 7.68 23.792941c0.090353 0 15.872 0.301176 23.762823-0.150588z m-12.468706-33.008941a129.144471 129.144471 0 1 0 0-258.319059 129.144471 129.144471 0 0 0 0 258.319059z m-540.310588 20.570352l-69.270588 92.099765-69.150118-92.099765C57.705412 527.36 0 605.214118 0 696.862118v125.379764h0.331294c4.005647 23.311059 94.991059 42.044235 206.968471 42.044236h2.770823v-138.059294c0-85.142588 34.273882-161.942588 89.690353-217.449412a184.922353 184.922353 0 0 0-23.311059-10.300236z m-68.939294-20.570352a129.144471 129.144471 0 1 0 0-258.319059 129.144471 129.144471 0 0 0 0 258.319059z m678.4 20.570352l-69.150118 92.340706-69.12-92.129882a228.894118 228.894118 0 0 0-23.552 10.300235 306.748235 306.748235 0 0 1 89.720471 217.47953v137.938823h2.710588c112.037647 0 203.233882-18.733176 206.998588-42.044235H1024v-125.500235c0-91.648-57.705412-169.351529-138.059294-198.384942zM207.872 576.873412l22.528-26.202353-10.752-35.960471h-23.762824l-11.535058 35.990588 23.521882 26.172236z m12.137412-65.957647s8.553412-8.794353 7.981176-23.642353a190.795294 190.795294 0 0 0-19.998117-0.90353 182.814118 182.814118 0 0 0-19.425883 0.90353s-0.903529 13.944471 7.649883 23.792941c0 0 15.902118 0.301176 23.792941-0.150588z" fill="#28AB91" p-id="1752"></path></svg>
